<?xml version="1.0" encoding="UTF-8"?>
<!-- Generated by Pixelmator Pro 3.5.7 -->
<svg width="800" height="800" viewBox="0 0 800 800" xmlns="http://www.w3.org/2000/svg">
    <g id="Associer">
        <path id="Trac" fill="#f2ecbf" stroke="none" d="M 400 0 C 376.468964 0 353.448273 2.151733 331.034485 6.041382 L 331.034485 58.937927 C 331.034485 106.482727 310.77243 150.579285 277.020691 183.089661 C 258.096558 201.324158 246.758606 227.793091 248.44136 256.951721 C 251.020676 301.710358 285.517242 339.22757 328.868958 344.220673 C 346.799988 346.289673 363.793091 342.951721 378.565491 335.627594 C 391.972412 328.993103 408.027588 328.993103 421.434509 335.627594 C 436.206909 342.951721 453.199982 346.289673 471.131042 344.220673 C 514.482727 339.22757 548.979309 301.710358 551.558594 256.951721 C 553.241394 227.793091 541.903442 201.337952 522.979309 183.089661 C 489.2276 150.579285 468.965515 102.717224 468.965515 55.172424 L 468.965515 6.041382 C 446.551727 2.151733 423.531036 0 400 0 Z"/>
        <path id="path1" fill="#f2ecbf" stroke="none" d="M 468.965515 727.268982 C 468.965515 679.724121 489.2276 635.627563 522.979309 603.117249 C 541.903442 584.882751 553.241394 558.413818 551.558594 529.255127 C 548.979309 484.496552 514.482727 446.979279 471.131042 441.986176 C 453.199982 439.917236 436.206909 443.255188 421.434509 450.579315 C 408.027588 457.22757 391.972412 457.22757 378.565491 450.579315 C 363.793091 443.255188 346.799988 439.917236 328.868958 441.986176 C 285.517242 446.979279 251.020676 484.496552 248.44136 529.255127 C 246.758606 558.413818 258.096558 584.868958 277.020691 603.117249 C 310.77243 635.641357 331.724121 679.724121 331.724121 727.268982 L 331.724121 794.082764 C 353.917236 797.903442 376.703461 800 400 800 C 423.531036 800 446.551727 797.848328 468.965515 793.958618 L 468.965515 727.268982 Z"/>
        <g id="g1">
            <path id="path2" fill="#41b0f6" stroke="none" d="M 468.965515 6.041382 L 468.965515 55.172424 C 468.965515 102.717224 489.2276 150.579285 522.979309 183.103455 C 541.903442 201.337952 553.241394 227.806885 551.558594 256.965515 C 548.979309 301.724152 514.482727 339.241364 471.131042 344.234497 C 453.199982 346.303467 437.7724 328.324127 423 321 C 409.593079 314.365509 390.406921 314.365509 377 321 C 362.2276 328.324127 346.799988 346.303467 328.868958 344.234497 C 285.517242 339.241364 251.020676 301.724152 248.44136 256.965515 C 246.758606 227.806885 258.096558 201.351746 277.020691 183.103455 C 310.77243 150.579285 331.034485 106.496582 331.034485 58.937927 L 331.034485 6.041382 C 143.006897 38.744812 0 202.620667 0 400 C 0 597.627563 143.351715 761.655212 331.724121 794.082764 L 331.724121 727.268982 C 331.724121 679.724121 310.77243 635.627563 277.020691 603.117249 C 258.096558 584.882751 246.758606 558.413818 248.44136 529.255127 C 251.020676 484.496552 285.517242 446.979279 328.868958 441.986176 C 346.799988 439.917236 361.2276 456.675873 376 464 C 389.406921 470.648254 410.593079 471.648254 424 465 C 438.7724 457.675873 453.199982 439.917236 471.131042 441.986176 C 514.482727 446.979279 548.979309 484.496552 551.558594 529.255127 C 553.241394 558.413818 541.903442 584.868958 522.979309 603.117249 C 489.2276 635.627563 468.965515 679.710327 468.965515 727.268982 L 468.965515 793.958618 C 656.993103 761.255188 800 597.379333 800 400 C 800 202.620667 656.993103 38.744812 468.965515 6.041382 Z"/>
        </g>
    </g>
</svg>
