<?xml version="1.0" encoding="UTF-8"?>
<!-- Generated by Pixelmator Pro 3.5.7 -->
<svg width="63" height="30" viewBox="0 0 63 30" xmlns="http://www.w3.org/2000/svg">
    <path id="Trac-copie-6" fill="#000000" stroke="none" d="M 58.810001 25.18 L 19.379999 25.18 C 18.280001 25.18 17.379999 26.080002 17.379999 27.18 L 17.379999 27.869999 C 17.379999 28.970001 18.280001 29.869999 19.379999 29.869999 L 58.82 29.869999 C 59.919998 29.869999 60.82 28.970001 60.82 27.869999 L 60.82 27.18 C 60.810001 26.080002 59.919998 25.18 58.810001 25.18 Z"/>
    <path id="Trac-copie-5" fill="#000000" stroke="none" d="M 28.02 18.900002 C 28.02 21.263779 26.103779 23.18 23.74 23.18 C 21.376221 23.18 19.459999 21.263779 19.459999 18.900002 C 19.459999 16.536221 21.376221 14.619999 23.74 14.619999 C 26.103779 14.619999 28.02 16.536221 28.02 18.900002 Z"/>
    <path id="Trac-copie-4" fill="#000000" stroke="none" d="M 6.96 33.949493 L 10.7 33.949493 C 8.15 30.459545 6.53 24.97963 6.53 18.689728 C 6.53 11.019852 8.94 4.54995 12.51 1.43 L 9.03 1.43 C 4.15 1.43 0.19 9.159878 0.19 18.689728 C 0.19 25.609623 6.36 33.949493 6.96 33.949493 Z"/>
    <path id="Trac-copie-3" fill="#000000" stroke="none" d="M 8.88 23.450001 L 12.88 23.450001 C 12.56 21.990002 12.38 20.380001 12.38 18.689999 C 12.38 12.630001 14.67 7.510002 17.379999 7.510002 C 19.17 7.510002 20.77 9.73 21.65 12.98 C 22.299999 12.740002 23.01 12.610001 23.74 12.610001 C 24.43 12.610001 25.09 12.720001 25.709999 12.93 C 24.5 6.23 21.23 1.43 17.379999 1.43 C 12.49 1.43 8.53 9.16 8.53 18.689999 C 8.53 20.34 8.66 21.939999 8.88 23.450001 Z"/>
    <path id="Trac-copie-2" fill="#000000" stroke="none" d="M 23.07 31.869999 L 20.719999 31.869999 C 15.73 32.119999 14.16 27.529999 13.43 25.450001 L 9.24 25.450001 C 10.03 29.099998 11.46 32.110001 13.24 33.950001 L 18.110001 33.950001 C 19.030001 33.950001 20.036823 34.024162 21 34 C 22.155664 33.971012 22.33 33.099998 23.07 31.869999 Z"/>
    <path id="Trac-copie" fill="#000000" stroke="none" d="M 56.720001 23.18 C 56.720001 20.580002 54.869999 18.400002 52.419998 17.900002 L 49.209999 17.27 L 44.990002 16.240002 C 41.380001 15.360001 37.619999 15.369999 34.009998 16.259998 L 29.810001 17.299999 C 29.939999 17.810001 30.02 18.34 30.02 18.889999 C 30.02 20.549999 29.369999 22.049999 28.32 23.169998 L 56.720001 23.169998 Z"/>
</svg>
