<?xml version="1.0" encoding="UTF-8"?>
<!-- Generated by Pixelmator Pro 3.5.6 -->
<svg width="100" height="125" viewBox="0 0 100 125" xmlns="http://www.w3.org/2000/svg">
    <path id="Trac" fill="#c6d479" stroke="none" d="M 54.471439 0 L 51.599575 0 C 34.133198 0 19.563292 13.233078 19.355423 29.861977 C 19.270634 36.707031 21.584536 43.028656 25.535395 48.131508 C 20.828281 47.334633 13.172718 44.759117 5.227239 36.734375 L 0.003188 41.42318 C 8.760994 50.268234 17.481878 53.528648 23.459454 54.688805 L 0.0237 54.688805 L 0.0237 61.524738 L 17.805986 61.524738 L 17.321873 61.828125 C 6.221448 68.779945 -0.249808 80.481766 0.010027 93.091148 L 0.003188 124.998695 L 4.105846 125 L 4.112682 93.053383 C 3.880201 81.755211 9.662211 71.302078 19.576967 65.092445 L 45.172085 48.967438 C 47.721199 47.36068 49.243282 44.66275 49.243282 41.751305 L 49.243282 37.042969 L 38.758259 27.059891 C 37.909012 26.251297 37.909012 24.941406 38.758259 24.134117 L 40.035557 22.916664 C 40.884804 22.108078 42.260563 22.108078 43.108444 22.916664 L 49.241917 28.756508 L 49.241917 22.665359 C 49.241917 21.522133 50.214249 20.596352 51.414959 20.596352 L 53.222862 20.596352 C 54.423576 20.596352 55.395905 21.522133 55.395905 22.665359 L 55.395905 28.697914 L 61.467842 22.916664 C 62.317089 22.108078 63.692848 22.108078 64.540726 22.916664 L 65.819397 24.134117 C 66.66864 24.942703 66.66864 26.252609 65.819397 27.059891 L 55.395905 36.984375 L 55.395905 41.751305 C 55.395905 46.619789 52.831741 51.165359 48.567715 53.852867 L 31.748184 64.457031 L 61.258598 64.457031 L 69.864609 56.26432 C 70.71386 55.455727 72.089615 55.455727 72.9375 56.26432 L 74.21479 57.481766 C 75.064041 58.290359 75.062675 59.60025 74.21479 60.407562 L 66.654968 67.605476 L 74.21479 74.803391 C 75.064041 75.611984 75.064041 76.921875 74.21479 77.729164 L 72.9375 78.946609 C 72.088249 79.755203 70.712494 79.755203 69.864609 78.946609 L 60.801838 70.317703 L 31.8234 70.317703 L 53.875187 91.313797 L 66.054611 91.313797 C 67.255318 91.313797 68.227646 92.239578 68.227646 93.382813 L 68.227646 95.104172 C 68.227646 96.247391 67.255318 97.173172 66.054611 97.173172 L 55.406845 97.173172 L 55.406845 107.311203 C 55.406845 108.454422 54.434517 109.380203 53.233803 109.380203 L 51.4259 109.380203 C 50.225189 109.380203 49.252857 108.454422 49.252857 107.311203 L 49.252857 95.199219 L 31.480146 78.270828 L 23.495005 80.384117 C 16.242874 82.367188 11.178826 88.768234 11.178826 95.951828 L 11.178826 125 L 15.281484 125 L 15.281484 95.951828 C 15.281484 90.501297 19.124308 85.643234 24.627342 84.138016 C 24.627342 84.138016 27.035601 83.420578 27.526552 83.420578 C 28.433237 83.420578 29.168983 84.121094 29.168983 84.984375 C 29.168983 85.524734 28.865387 85.980469 28.44281 86.282547 C 24.189722 89.325516 20.204674 93.445313 20.204674 103.091148 C 20.204674 114.877602 29.97994 124.486984 42.231842 124.979172 C 42.231842 124.979172 43.361443 124.998695 43.433926 124.997398 C 71.911835 125.143227 100 104.394531 100 62.57552 C 99.998634 28.097656 79.585175 0 54.471439 0 Z"/>
</svg>
