<svg viewBox="0 0 64 64" xmlns="http://www.w3.org/2000/svg"><g id="ad"><g><path d="m31.04 49.727c-.685-2.293-1.04-4.685-1.04-7.076 0-1.296.1-2.579.299-3.843l3.955.599c-.169 1.067-.254 2.15-.254 3.244 0 1.473.161 2.947.475 4.388l-3.434 2.687z" fill="#719301"></path><path d="m43.588 28.941c3.191 1.209 6.159 2.953 8.768 5.146l-2.401 3.208c-2.203-1.885-4.709-3.397-7.406-4.466l1.038-3.887z" fill="#719301"></path><path d="m33.92 21.031c-.261-1.046-.57-2.077-.925-3.09 3-1.56 5.266-4.179 6.386-7.326.417-1.172-.333-2.44-1.56-2.645-.932-.156-1.877.353-2.188 1.245-.738 2.117-2.217 3.898-4.181 5.013-.75-1.547-1.613-3.038-2.585-4.463l-3.06 2.618c2.176 3.289 3.71 6.97 4.513 10.847z" fill="#719301"></path><path d="m16.791 36.642c1.045-.766 2.125-1.486 3.236-2.157-2.023-2.289-4.667-3.986-7.625-4.859l1.489-3.727c3.833 1.209 7.221 3.535 9.728 6.643.746-.359 1.504-.697 2.272-1.013l.522-.215.652 4.059c-2.794 1.182-5.428 2.682-7.856 4.455l-7.424 7.07c-1.13 1.398-2.166 2.876-3.098 4.424-.544.903-1.712 1.203-2.64.703-1.012-.545-1.353-1.827-.759-2.811 1.069-1.77 2.261-3.457 3.564-5.047z" fill="#719301"></path><g fill="#8dbf00"><ellipse cx="35" cy="30" rx="10" ry="8" transform="matrix(.536 -.844 .844 .536 -9.084 43.477)"></ellipse><ellipse cx="55.823" cy="40.152" rx="6" ry="7" transform="matrix(.914 -.405 .405 .914 -11.485 26.08)"></ellipse><ellipse cx="35" cy="54" rx="5" ry="7"></ellipse><ellipse cx="8" cy="26.714" rx="6" ry="4.286"></ellipse><ellipse cx="14" cy="41.714" rx="6" ry="4.286" transform="matrix(.707 -.707 .707 .707 -25.396 22.117)"></ellipse><ellipse cx="24.646" cy="7.696" rx="4" ry="5" transform="matrix(.819 -.573 .573 .819 .039 15.516)"></ellipse></g><path d="m8 22.429c-1.144 0-2.209.233-3.119.63-.555.65-.881 1.411-.881 2.228 0 2.367 2.686 4.286 6 4.286 1.144 0 2.209-.233 3.119-.63.555-.65.881-1.411.881-2.228 0-2.367-2.686-4.286-6-4.286z" fill="#a6d305"></path><path d="m22.587 3.198c-.892 1.453-.764 3.607.489 5.398 1.363 1.948 3.588 2.809 5.337 2.205.892-1.453.764-3.607-.489-5.398-1.363-1.948-3.588-2.809-5.337-2.205z" fill="#a6d305"></path><path d="m40.358 21.557c-2.355-1.495-5.384-1.3-8.043.217-2.59 4.557-1.886 9.92 1.704 12.198 2.355 1.495 5.384 1.3 8.043-.217 2.59-4.557 1.886-9.92-1.704-12.198z" fill="#a6d305"></path><path d="m52.985 33.754c-.382.169-.734.38-1.055.627-.468 1.591-.37 3.45.408 5.205 1.567 3.534 5.294 5.31 8.323 3.966.382-.169.734-.38 1.055-.627.468-1.591.37-3.45-.408-5.205-1.567-3.534-5.294-5.31-8.323-3.966z" fill="#a6d305"></path><path d="m35 47c-1.376 0-2.621.778-3.525 2.037-.302.901-.475 1.902-.475 2.963 0 3.866 2.239 7 5 7 1.376 0 2.621-.778 3.525-2.037.302-.901.475-1.902.475-2.963 0-3.866-2.239-7-5-7z" fill="#a6d305"></path><path d="m18.243 37.472c-1.674-1.674-4.93-1.131-7.273 1.212-.347.347-.641.718-.908 1.097-.177 1.263.103 2.441.91 3.248 1.674 1.674 4.93 1.131 7.273-1.212.347-.347.641-.718.908-1.097.177-1.263-.103-2.441-.91-3.248z" fill="#a6d305"></path></g></g></svg>