<?xml version="1.0" encoding="UTF-8" standalone="no"?>
<!-- Generator: Adobe Illustrator 10.0, SVG Export Plug-In . SVG Version: 3.0.0 Build 76)  -->
<svg
    xmlns="http://www.w3.org/2000/svg"
    i:rulerOrigin="0 0"
    overflow="visible"
    i:viewOrigin="250.7319 453.1699"
    i:pageBounds="0 841.8896 595.2754 0"
    enable-background="new 0 0 96.821 69.728"
    xml:space="preserve"
    viewBox="0 0 96.821 69.728"
  >
	<g
      id="Ebene_1"
      i:rgbTrio="#4F008000FFFF"
      i:layer="yes"
      i:dimmedPercent="50"
    >
		<g
      >
			<path
          stroke="#E5AB76"
          fill="#F5CB9F"
          d="m29.936 43.264c0.59 1.28 1.245 3.403-1.372 3.944-3.7 1.083 3.881 3.43 2.798 6.588s3.249 2.257 3.61 4.964c0.43 3.226-3.52 8.212-7.761 7.399-3.644-0.697-7.065 4.115-9.837 3.069-3.816-0.398-3.521-5.054-6.408-5.687-3.52-0.541-2.076-5.775-4.693-6.137-2.888-0.451-0.18-4.873-2.617-6.949-5.339-4.547 0.18-7.129-2.527-10.287-2.63-5.834 3.068-4.693 2.617-9.024-0.475-4.555 6.503-4.135 8.733-6.893 2.064-2.552 4.382-0.624 6.158-2.673 1.495-1.724 1.512-2.226 3.877-3.042 1.319-0.917 1.57-3.007 3.072-3.908 1.805-1.083 4.758 0.299 6.588 0.09 4.242-0.902 2.867-3.678 6.949-2.978 3.159 0.542 7.304-5.026 12.002-3.61 4.68 1.41 9.654-4.361 12.996-2.708 2.727 1.349 6.994-1.831 10.029 0.271 2.922 2.022 7.113-1.951 10.393-1.714 6.111 0.441 8.684-9.003 11.594 0.596 1.494 4.932-2.416 13.122-6.863 17.171-1.879 1.711-4.602 3.332-6.85 4.444-3.574 1.77-9.059-0.458-11.553 3.139-1.697 2.445-8.014-1.977-9.936 0.306-2.758 3.277-8.863 1.31-9.992 5.479-1.172 4.332-13.626 1.444-12.272 4.964 1.99 5.172-9.747 0.993-8.735 3.186z"
          i:knockout="Off"
      />
		</g
    >
	</g
  >
</svg>
