<?xml version="1.0" encoding="UTF-8"?>
<!-- Generated by Pixelmator Pro 3.5.6 -->
<svg width="1000" height="1000" viewBox="0 0 1000 1000" xmlns="http://www.w3.org/2000/svg">
    <path id="Remplissage" fill="#ffffff" stroke="none" visibility="hidden" d="M 0 0 L 1000 0 L 1000 1000 L 0 1000 Z"/>
    <path id="Forme" fill="#ffffff" fill-rule="evenodd" stroke="none" visibility="hidden" d="M 398.29892 719.08313 C 394.615906 718.645142 387.776459 716.825806 383.100189 715.040283 C 378.423859 713.254761 371.444214 709.657715 367.589783 707.046753 C 363.735352 704.435852 357.688965 698.708191 354.15332 694.318665 C 350.279785 689.509644 346.531525 683.072937 344.722229 678.123169 C 343.07077 673.605225 341.651031 669.221619 341.021729 667.194214 C 340.53125 665.614136 340.68924 662.740906 339.407471 661.851074 C 338.018921 660.887085 334.609436 660.951294 330.428955 659.577148 C 325.477783 657.949585 317.596466 654.176086 312.914978 651.19165 C 307.527039 647.756836 302.060272 642.895508 298.01947 637.94574 C 293.563202 632.487122 290.464569 626.932983 287.756897 619.550537 C 285.112518 612.340698 283.671143 605.661621 283.227905 598.564209 C 282.66095 589.485535 282.933685 586.922119 285.359253 578.529602 C 287.040039 572.714233 290.275299 565.476929 293.534729 560.241394 C 297.31134 554.175049 301.592377 549.404663 307.81189 544.332275 C 314.309204 539.033447 319.304413 536.169373 326.41037 533.668762 C 331.84787 531.755371 340.484558 529.909668 346.025177 529.477234 C 354.002289 528.854553 357.576172 529.142944 364.429657 530.962524 C 369.107422 532.204468 375.499207 534.380981 378.633698 535.799133 C 384.332672 538.377686 384.332672 538.377686 388.474121 534.715942 C 390.751923 532.701904 400.590973 522.944641 410.338715 513.032959 C 420.086426 503.121338 430.552979 492.19455 433.597687 488.751129 C 436.642426 485.3078 442.572998 479.369995 446.776764 475.555969 C 450.98053 471.741943 464.132477 458.782349 476.003265 446.756958 C 487.874084 434.731567 499.216858 422.862183 501.209473 420.380493 C 503.202118 417.898926 507.844086 413.193298 511.524933 409.923645 C 515.205811 406.653992 522.34845 399.835083 527.397522 394.770569 C 533.485535 388.663879 536.537048 384.704834 536.457153 383.016479 C 536.39093 381.616272 534.744324 376.122986 532.797974 370.809143 C 530.76178 365.249878 528.891235 356.879272 528.392517 351.094971 C 527.591125 341.799561 527.760376 340.277161 530.639343 330.886353 C 532.582703 324.547363 535.925232 317.318848 539.533081 311.65271 C 543.275696 305.775085 547.947571 300.441101 552.78595 296.521973 C 557.367554 292.810791 564.102844 288.972656 570.195007 286.601257 C 575.660034 284.473999 584.20166 282.307861 589.176331 281.787598 C 595.118896 281.166138 600.923096 281.375916 606.098633 282.39917 C 610.431213 283.25592 617.295532 285.406982 621.352539 287.179504 C 625.409668 288.952026 631.502258 292.432129 634.891785 294.913147 C 638.281311 297.394104 643.736694 302.772095 647.014954 306.864136 C 651.010986 311.852173 654.364258 318.02832 657.189514 325.603638 C 659.21228 331.027344 659.992126 337.964111 659.992126 337.964111 C 659.992126 337.964111 665.934204 338.406555 670.842407 340.035339 C 676.033813 341.758118 683.98468 345.567749 688.511047 348.501282 C 693.037476 351.434753 699.183899 356.654419 702.169861 360.100525 C 705.155823 363.54657 709.309998 369.749146 711.401367 373.884033 C 713.492676 378.018921 715.952942 384.34198 716.868591 387.935303 C 717.78418 391.528625 718.646179 398.334229 718.784119 403.058899 C 718.974121 409.566223 718.349731 414.028687 716.209534 421.462158 C 714.490417 427.432617 711.304688 434.618713 708.073608 439.814148 C 704.328186 445.836609 700.178345 450.426086 693.992432 455.386841 C 687.971863 460.215027 682.250732 463.49707 675.746887 465.853699 C 670.535706 467.741943 662.13208 469.696106 657.072144 470.19635 C 651.037109 470.792847 645.32135 470.57019 640.457214 469.548889 C 636.378845 468.692566 629.828064 466.594177 625.89978 464.88562 C 621.239319 462.858643 618.024597 462.074402 616.648254 462.628723 C 615.48822 463.095947 606.611511 471.474548 596.922302 481.247864 C 587.233093 491.021088 574.691162 503.781799 569.05127 509.605042 C 563.411438 515.428223 547.882996 531.130859 534.54364 544.499695 C 521.204346 557.868652 507.99585 571.346863 505.191528 574.451416 C 502.387238 577.55603 497.216583 582.849915 493.701233 586.215698 C 490.185883 589.581421 481.984772 597.690063 475.476563 604.234985 C 465.448517 614.319458 463.769043 616.542847 464.466858 618.810181 C 464.919769 620.281738 466.676422 625.420288 468.370605 630.229248 C 470.064758 635.038208 471.845856 642.876953 472.328583 647.648682 C 472.893616 653.233765 472.645844 659.130249 471.633118 664.200195 C 470.767853 668.531921 468.60965 675.395386 466.837158 679.452454 C 465.064636 683.509521 461.581482 689.610718 459.096771 693.010742 C 456.612091 696.410645 451.223328 701.830139 447.121765 705.053955 C 443.020203 708.27771 436.148132 712.320374 431.850494 714.037598 C 427.552917 715.754761 419.75238 717.771729 414.516022 718.519653 C 409.279633 719.267578 401.981964 719.521118 398.29892 719.08313 Z M 402.539185 702.314087 C 412.674316 703.096313 415.061096 702.841492 422.312592 700.203125 C 426.848419 698.552795 433.592224 694.804871 437.298859 691.874329 C 441.152374 688.827698 446.119324 683.271484 448.898346 678.898743 C 453.469208 671.706604 453.592377 671.283569 455.59198 659.513184 C 456.880341 651.929321 456.101685 644.480652 454.929565 640.069519 C 454.061218 636.801514 451.200226 630.483276 448.571838 626.029053 C 445.943481 621.574707 442.316833 615.335449 442.316833 615.335449 C 442.316833 615.335449 469.935669 586.466858 528.168945 527.620544 C 591.546692 463.5755 615.507629 440.723877 615.507629 440.723877 C 615.507629 440.723877 621.929321 444.268188 626.283569 446.942383 C 633.673828 451.481201 635.03772 451.895752 646.791992 453.176331 C 658.45813 454.447266 660.006897 454.331909 667.862427 451.607056 C 672.525757 449.989502 679.239563 446.492249 682.781921 443.83551 C 686.327393 441.17627 691.296631 435.818604 693.83667 431.916504 C 696.374451 428.017883 699.426758 421.456055 700.619507 417.334839 C 702.174744 411.961243 702.665222 407.635254 702.353333 402.041687 C 702.114197 397.751709 700.884216 391.12915 699.620056 387.32489 C 698.355835 383.52063 694.894714 377.209045 691.928589 373.299255 C 688.572876 368.875916 683.654846 364.352539 678.909546 361.325012 C 672.302917 357.109863 669.788147 356.227966 660.096497 354.727417 C 651.583923 353.409485 645.870911 352.763306 645.870911 352.763306 C 645.870911 352.763306 645.109253 346.061707 644.965332 343.188599 C 644.821411 340.315552 643.56488 334.797729 642.172974 330.926697 C 640.781006 327.055786 637.15686 320.712891 634.119385 316.831604 C 630.617493 312.356873 625.804871 308.077515 620.967407 305.136841 C 615.261047 301.667908 611.088135 300.106873 604.409668 298.942505 C 599.498901 298.086365 592.719055 297.714294 589.343262 298.11554 C 585.967529 298.516907 580.291931 299.922363 576.730774 301.23877 C 573.169617 302.555115 567.660645 305.634155 564.488647 308.080933 C 561.316589 310.527832 557.232178 314.372253 555.412231 316.624084 C 553.592224 318.876038 550.648315 323.862061 548.870178 327.704224 C 546.964478 331.821838 545.29657 337.816223 544.807556 342.30481 C 544.351257 346.493103 544.485107 352.66803 545.10498 356.026733 C 545.724915 359.385559 547.154602 364.418335 548.282166 367.210754 C 549.409729 370.003174 552.202576 374.832947 554.488525 377.943604 C 557.559998 382.12323 558.759583 384.678711 558.759583 384.678711 C 558.759583 384.678711 518.752991 426.534302 472.541473 473.247192 C 426.329956 519.960083 386.827789 559.210571 386.827789 559.210571 C 386.827789 559.210571 382.575958 557.477966 379.729218 555.454712 C 376.882538 553.431458 371.71637 550.593628 368.248901 549.148499 C 364.781372 547.703369 358.861267 546.185059 355.093048 545.774536 C 351.32486 545.364014 344.673096 545.718384 340.311401 546.562012 C 335.949677 547.405579 329.653595 549.503662 326.320129 551.224304 C 322.986633 552.944946 318.116882 556.365967 315.498474 558.82666 C 312.880035 561.287231 309.034668 566.075623 306.953247 569.467529 C 304.871796 572.859436 302.225403 579.007568 301.072357 583.130005 C 299.601166 588.389771 299.105347 592.947266 299.409943 598.4104 C 299.648651 602.692261 301.000214 609.394714 302.413452 613.304749 C 303.898621 617.414063 307.614777 623.535522 311.219971 627.81134 C 314.650391 631.879944 320.419952 636.988892 324.04126 639.164551 C 329.094971 642.200928 333.174072 643.550415 341.5896 644.970337 C 347.619873 645.987793 354.522766 646.97229 354.522766 646.97229 C 354.522766 646.97229 355.325317 653.176147 355.831879 657.353638 C 356.338379 661.531128 357.661835 667.340454 358.772827 670.26355 C 359.88382 673.186523 362.200745 677.782104 363.921448 680.476074 C 365.642212 683.169983 369.69986 687.65918 372.938446 690.452087 C 376.177032 693.244995 381.568604 696.856323 384.919769 698.477295 C 389.639191 700.760132 393.611176 701.625061 402.539185 702.314087 Z"/>
    <path id="Forme-copie-2" fill="#d5d5d5" fill-rule="evenodd" stroke="#929292" stroke-width="18" stroke-linecap="round" stroke-linejoin="round" visibility="hidden" d="M 263.953033 782.089294 C 258.905273 780.076477 249.91188 774.914856 243.967712 770.61908 C 238.02359 766.323242 229.503983 758.592041 225.035355 753.43866 C 220.566666 748.285278 214.173843 737.891174 210.828979 730.340698 C 207.164429 722.068481 204.292847 711.539917 203.603516 703.849243 C 202.974396 696.829407 202.857559 693.815002 202.73349 690.707214 C 202.636765 688.285034 206.242661 679.348511 204.764801 677.604248 C 203.163803 675.714661 195.782318 675.717773 190.384491 672.191772 C 183.991409 668.015625 174.262268 659.693787 168.764053 653.698975 C 162.436249 646.799438 156.536301 637.85083 152.688232 629.316162 C 148.44455 619.904297 146.158722 610.870605 145.117706 599.396545 C 144.100983 588.190918 144.586426 578.191467 146.642929 567.977295 C 149.273529 554.911987 150.629013 551.386475 157.236145 540.42395 C 161.814514 532.827759 169.13089 523.806763 175.724564 517.628235 C 183.364395 510.469421 191.228287 505.335754 201.950333 500.50766 C 213.151169 495.46402 221.305054 493.298859 232.309326 492.446442 C 240.729767 491.794098 253.653137 492.44754 261.659485 493.930634 C 273.186707 496.065857 278.136536 497.825562 287.14978 502.992828 C 293.301544 506.519806 301.526245 512.017822 305.426788 515.210632 C 312.518707 521.015747 312.518707 521.015747 319.765747 517.39856 C 323.751617 515.409058 341.368805 505.318085 358.9151 494.974213 C 376.461365 484.630249 395.409058 473.121155 401.021027 469.398315 C 406.632965 465.675598 417.273285 459.513123 424.666077 455.704041 C 432.058868 451.894897 455.576569 438.523865 476.927338 425.990662 C 498.278229 413.457642 518.489929 400.422607 522.581787 398.186218 C 527.430847 395.536072 560.273743 377.097717 569.335938 371.838074 C 580.262939 365.496155 586.07959 361.046021 586.60498 358.625854 C 587.040771 356.618896 586.787231 348.220276 586.041748 339.962402 C 585.261658 331.323181 585.779236 318.767151 587.260681 310.390686 C 589.641357 296.92981 590.456726 294.838928 598.08313 282.634644 C 603.23114 274.396606 610.696106 265.428467 617.945801 258.772278 C 625.466248 251.867676 634.096375 246.084106 642.427307 242.366089 C 650.31604 238.845398 661.301453 235.959473 670.821777 234.906433 C 679.362122 233.961914 692.272034 234.125793 699.510498 235.270569 C 708.157349 236.638062 716.293945 239.130005 723.233154 242.535706 C 729.041992 245.386658 737.945129 251.027405 743.017639 255.070679 C 748.090271 259.113892 755.398499 266.344055 759.258118 271.137695 C 763.117859 275.931335 768.806335 285.606995 771.899353 292.639038 C 775.669434 301.210815 778.080688 311.221436 779.215149 323.012817 C 780.027405 331.455139 773.487549 343.781555 773.487549 343.781555 C 773.487549 343.781555 786.751892 344.442505 793.083618 348.604126 C 799.780701 353.005737 809.594604 361.405212 814.892517 367.269409 C 820.190369 373.133423 826.916992 382.846313 829.840332 388.853516 C 832.764038 394.860657 836.298706 405.211365 837.695496 411.855286 C 839.092224 418.499146 840.183533 428.379944 840.120911 433.812561 C 840.058044 439.245178 838.70459 449.204651 837.113159 455.944763 C 834.921326 465.227844 832.350037 471.30835 826.509521 481.02124 C 821.818298 488.822449 814.591431 497.789856 808.052979 503.922241 C 800.473816 511.030792 792.864014 515.958008 782.231934 520.640747 C 771.88385 525.198486 762.54425 527.680725 752.446899 528.557129 C 744.356201 529.259399 731.721802 528.847595 724.370117 527.642212 C 715.601807 526.204468 707.595337 523.727722 701.096191 520.442688 C 695.646973 517.688354 687.167847 512.240723 682.253357 508.336792 C 676.422913 503.705139 672.168945 501.379303 670.011108 501.643524 C 668.192383 501.86618 652.458801 510.369415 635.047607 520.539734 C 617.636597 530.709839 595.057556 544.030029 584.872192 550.140259 C 574.686707 556.250366 546.767883 572.605469 522.8302 586.484985 C 498.892639 600.364624 475.098877 614.448486 469.955261 617.782593 C 464.811676 621.116699 455.490601 626.654907 449.241791 630.089905 C 442.99295 633.52478 428.31778 641.901489 416.630219 648.704712 C 398.621887 659.187378 395.403748 661.699524 395.534088 665.172913 C 395.618744 667.427124 396.162109 675.365234 396.74173 682.81311 C 397.321259 690.260864 396.878174 702.030273 395.757019 708.967224 C 394.444733 717.08667 391.864288 725.339661 388.513489 732.133362 C 385.650574 737.937744 380.000183 746.836975 375.95697 751.909546 C 371.913666 756.982178 364.675964 764.301392 359.873047 768.174377 C 355.07019 772.047546 345.392944 777.68103 338.368042 780.69342 C 331.343079 783.705688 320.0867 786.829468 313.354004 787.63501 C 306.621338 788.440613 294.816803 788.345703 287.121765 787.424255 C 279.426758 786.502808 269.000854 784.102051 263.953033 782.089294 Z"/>
    <path id="path1" fill="#d5d5d5" fill-rule="evenodd" stroke="#000000" stroke-width="22" stroke-linejoin="round" d="M 673.046875 241.109375 L 680.234375 242.234375 L 684.4375 243.375 L 690.0625 245.28125 L 694.734375 247.34375 L 699.8125 249.96875 L 704.65625 252.984375 L 714.34375 260.28125 L 722.921875 268.703125 L 731.21875 279.84375 L 736.78125 289.828125 L 739.875 297.421875 L 742.953125 309.203125 L 744.125 318.6875 L 744.25 334.53125 L 746 342.96875 L 751.625 347.28125 L 761 352.109375 L 769.015625 356.984375 L 777.421875 363.265625 L 782.5 368.109375 L 786.90625 373.125 L 793.484375 382.5 L 798.515625 391.828125 L 800.828125 397.046875 L 804.3125 408.5 L 806.421875 420.765625 L 806.890625 427.1875 L 806.34375 438.09375 L 804.359375 448.375 L 801.09375 457.609375 L 797.375 464.71875 L 792.1875 472.859375 L 787.1875 479.3125 L 778.671875 488.046875 L 771.078125 494.03125 L 762.15625 499.765625 L 755.90625 502.6875 L 746.90625 505.671875 L 741.21875 507.03125 L 729.3125 508.78125 L 719.34375 509.140625 L 713.53125 508.75 L 704.421875 507.40625 L 696.609375 505.21875 L 687.234375 501.328125 L 682.75 499.046875 L 675.484375 494.484375 L 661.484375 483.78125 L 654.5625 480.375 L 647.296875 481.515625 L 635.875 487.578125 L 614.453125 500.203125 L 408.53125 624.0625 L 399.203125 630.3125 L 395.46875 634.578125 L 393.875 639.953125 L 394.171875 647.25 L 396.890625 664.734375 L 397.203125 676.625 L 395.65625 689.40625 L 393.953125 695.75 L 391.453125 702.71875 L 385.28125 714.671875 L 377.3125 726.046875 L 367.28125 736.078125 L 362 740.234375 L 356.625 743.734375 L 345.15625 749.4375 L 335.296875 752.609375 L 329.125 754.046875 L 321.109375 755.328125 L 311.6875 755.96875 L 305.328125 755.859375 L 298.5625 754.90625 L 291.75 753.328125 L 282.9375 750.328125 L 279.0625 748.546875 L 272.125 744.609375 L 266.78125 740.890625 L 260.46875 735.8125 L 253.046875 728.453125 L 249.078125 723.90625 L 244.53125 717.671875 L 239.9375 709.6875 L 237.015625 703.296875 L 234.171875 694.90625 L 232.828125 689.453125 L 231.578125 680.359375 L 231.078125 670.21875 L 231.25 661.15625 L 229.203125 652.9375 L 222.859375 648.5625 L 210.515625 642.296875 L 206.515625 639.78125 L 197.703125 633.078125 L 191.234375 626.71875 L 185.203125 619.21875 L 179.90625 610.875 L 175.15625 601.390625 L 172.671875 594.3125 L 170.546875 585.890625 L 168.875 575.4375 L 168.515625 566.25 L 169.15625 557.5625 L 170.65625 549.46875 L 173.515625 541.046875 L 177.203125 533.203125 L 182.0625 525.203125 L 188.828125 516.703125 L 195.5625 509.609375 L 201.53125 504.484375 L 210.078125 498.734375 L 217.890625 494.53125 L 226.359375 491.40625 L 233.65625 489.40625 L 244.390625 487.65625 L 252.859375 487.34375 L 262.328125 487.890625 L 271.625 489.5 L 282 492.640625 L 288.1875 495.28125 L 295.328125 499.15625 L 301.703125 503.453125 L 315.515625 513.875 L 322 516.359375 L 328.453125 515.578125 L 453.046875 441.140625 L 578.09375 365.40625 L 581.171875 359.1875 L 581.78125 353.015625 L 579.34375 339.5625 L 578.5625 332.921875 L 578.3125 319.84375 L 579.359375 310.40625 L 580.546875 304.796875 L 582.25 299.21875 L 586.859375 288.21875 L 591.140625 280.359375 L 594.875 274.6875 L 599.609375 268.6875 L 603.609375 264.515625 L 609.578125 259.078125 L 612.8125 256.671875 L 619.3125 252.59375 L 624.796875 249.65625 L 634.609375 245.640625 L 640.234375 243.984375 L 649.265625 241.9375 L 654.171875 241.15625 L 661.625 240.65625 L 667.109375 240.625 Z"/>
    <path id="path2" fill="#ffffff" fill-rule="evenodd" stroke="#ffffff" stroke-width="22" visibility="hidden" d="M 436.588074 987.32782 C 436.009399 987.305908 435.161041 986.883728 434.702911 986.389587 C 434.244751 985.895447 434.129272 978.630005 434.446259 970.244141 C 434.763245 961.858215 436.153107 948.110168 437.534821 939.692871 C 438.916565 931.275635 441.249023 915.949036 442.718048 905.63385 C 444.187134 895.318604 448.584595 863.299744 452.490234 834.480774 C 456.395844 805.661865 460.391541 776.361877 461.369537 769.369873 C 462.575165 760.75061 464.191071 754.740051 466.387939 750.703613 C 468.911041 746.06781 470.419434 744.689331 473.203674 744.474976 C 475.983917 744.260986 477.087494 744.950195 478.165161 747.573853 C 479.155762 749.985535 479.039337 758.258911 477.756989 776.57782 C 476.770203 790.674194 474.061523 814.424622 471.737701 829.356506 C 469.413879 844.28833 465.551483 867.842285 463.154663 881.698547 C 460.757813 895.554871 456.607513 918.512695 453.931854 932.716064 C 451.256165 946.919434 447.403809 963.744141 445.371002 970.104309 C 443.338196 976.464478 440.767181 982.950623 439.657654 984.517883 C 438.548096 986.085205 437.166779 987.34967 436.588074 987.32782 Z M 634.895142 974.95105 C 634.012207 975.224182 632.170166 973.460571 630.801758 971.031921 C 629.433411 968.603271 626.442322 962.449097 624.154907 957.356079 C 621.867493 952.263062 618.698547 944.535889 617.112732 940.18457 C 615.526917 935.833313 612.956299 928.421326 611.400269 923.713562 C 609.844238 919.005798 606.667603 908.059814 604.341248 899.389221 C 602.014832 890.718567 598.133789 876.527466 595.716797 867.853394 C 593.299805 859.179321 588.641052 842.325562 585.364136 830.400452 C 582.087158 818.475403 576.332764 797.934265 572.576538 784.753479 C 568.820374 771.572693 561.840637 747.316284 557.066101 730.850464 C 552.291504 714.384644 548.186707 698.152222 547.944153 694.778564 C 547.543884 689.209106 547.89325 688.283142 551.741028 684.715698 C 554.56488 682.097534 556.717285 681.084595 558.192444 681.679688 C 559.409973 682.170776 561.603271 684.024475 563.066467 685.79895 C 564.529663 687.573364 566.581665 691.587036 567.626404 694.718262 C 568.671143 697.849365 571.531494 708.249512 573.982727 717.82959 C 576.434021 727.409668 580.820801 744.545776 583.731323 755.909912 C 586.641785 767.273987 591.053772 784.548584 593.535645 794.297913 C 596.017578 804.047241 600.210999 820.590942 602.854309 831.061584 C 605.49762 841.532288 609.506592 857.191162 611.763184 865.859131 C 614.019775 874.527161 618.230225 890.471375 621.119812 901.290771 C 624.009338 912.110168 628.674072 929.200073 631.485901 939.268311 C 635.023438 951.935547 636.58313 960.174011 636.549377 966.014343 C 636.516479 971.695129 635.975708 974.616821 634.895142 974.95105 Z M 286.189972 932.227356 C 285.25882 932.192139 285.045776 930.862488 285.613464 928.629456 C 286.108734 926.681274 288.357727 920.768188 290.611237 915.489197 C 292.864777 910.210205 297.853149 899.572876 301.696533 891.850647 C 305.539948 884.128479 313.510437 868.852722 319.408783 857.904541 C 325.307159 846.956299 333.668945 832.35022 337.990509 825.446472 C 342.312042 818.542725 349.761749 807.482971 354.54538 800.869141 C 359.329041 794.25531 365.020569 786.953918 367.193237 784.643799 C 369.365906 782.333679 372.226868 780.393677 373.550964 780.332703 C 375.254791 780.254272 375.850677 781.003052 375.589905 782.894897 C 375.387268 784.365051 368.548553 797.273193 360.392792 811.57959 C 352.237061 825.885986 339.621704 847.607361 332.358734 859.849243 C 325.095703 872.091125 314.132233 890.402588 307.995483 900.541382 C 301.858704 910.680176 294.774261 921.969788 292.252319 925.629395 C 289.730377 929.28894 287.002319 932.258057 286.189972 932.227356 Z M 816.063171 884.63501 C 813.874268 884.552246 788.816589 858.299683 719.809753 783.791199 C 668.497986 728.388672 622.521362 677.648376 617.639404 671.034973 C 612.289124 663.787292 608.504333 657.271362 608.111816 654.63208 C 607.653992 651.554199 608.079224 649.67981 609.543335 648.322388 C 610.793152 647.163574 612.936707 646.693481 614.902954 647.146973 C 616.7052 647.562622 622.210938 651.463196 627.137878 655.81488 C 632.064758 660.166565 646.687927 675.580811 659.633667 690.068848 C 672.579407 704.556763 702.399536 738.81665 725.900635 766.201904 C 749.401672 793.587097 777.877441 826.784424 789.180115 839.973694 C 800.482727 853.163025 811.528748 866.816467 813.726746 870.314697 C 815.924744 873.812988 818.015564 878.491333 818.372864 880.710999 C 818.946655 884.275452 818.67688 884.733826 816.063171 884.63501 Z M 162.867386 837.568604 C 160.836685 837.877808 159.730148 837.546326 160.060806 836.727905 C 160.361038 835.984741 162.555679 832.912659 164.937775 829.901062 C 167.31987 826.889465 173.564941 820.50177 178.815689 815.706177 C 184.066437 810.910645 191.215683 804.896423 194.702866 802.341187 C 198.190079 799.78595 202.358307 797.738831 203.96553 797.791931 C 206.213837 797.866333 206.859741 798.630981 206.766129 801.107544 C 206.683792 803.285583 204.285599 806.47876 199.350006 810.982056 C 195.338028 814.642578 186.242493 822.007202 179.13768 827.347839 C 172.032867 832.688538 164.711227 837.287842 162.867386 837.568604 Z M 79.62355 728.869446 C 77.721786 729.175598 75.747986 728.975464 75.237358 728.424744 C 74.72673 727.873962 74.347908 726.392273 74.395538 725.132141 C 74.447899 723.746948 78.567482 720.200562 84.812675 716.164307 C 90.494461 712.492188 99.919731 706.973267 105.757683 703.900024 C 111.595634 700.826721 119.185738 697.397888 122.62455 696.280334 C 128.37175 694.412598 129.039474 694.423706 130.888321 696.417847 C 132.29953 697.939941 132.515274 699.217102 131.611328 700.69812 C 130.90274 701.859131 128.79892 703.743225 126.936211 704.88501 C 125.073502 706.026733 120.322563 708.957764 116.378593 711.398438 C 112.434624 713.838989 103.3293 718.643188 96.144531 722.074341 C 88.959778 725.505493 81.525337 728.563232 79.62355 728.869446 Z M 909.124268 750.242554 C 908.320313 750.175415 902.493835 747.531128 896.176392 744.366394 C 889.859009 741.20166 880.389648 736.276733 875.133362 733.422119 C 869.877075 730.567505 858.421692 723.999634 849.67688 718.826904 C 840.932129 713.654236 827.359863 705.446899 819.516296 700.58844 C 811.672791 695.72998 798.250671 687.007446 789.689392 681.204956 C 781.128174 675.402466 768.141968 666.347046 760.831055 661.081665 C 753.520203 655.816284 740.99762 646.520386 733.00293 640.424133 C 725.008301 634.327881 715.459839 626.210327 711.78418 622.385193 C 705.72644 616.081177 705.25592 615.165894 706.755005 612.602539 C 708.19397 610.141968 709.205383 609.881592 714.540894 610.598572 C 718.562866 611.139038 724.795044 613.802063 732.651489 618.337219 C 739.239624 622.140259 752.31842 630.846741 761.715454 637.684937 C 771.112488 644.523193 788.212646 656.56958 799.71582 664.454712 C 811.218994 672.339966 832.898804 687.078796 847.89325 697.207764 C 862.887756 707.336731 879.712708 718.920898 885.282227 722.950378 C 890.851746 726.979858 897.960632 732.427979 901.079712 735.057373 C 904.198792 737.686768 908.375122 741.356567 910.360413 743.212524 C 913.350647 746.007935 913.679688 746.911133 912.278015 748.47583 C 911.34729 749.514709 909.928101 750.309753 909.124268 750.242554 Z M 28.767563 566.185242 C 22.629894 565.953247 20.342352 565.366882 19.841221 563.897217 C 19.470608 562.810364 19.512819 561.113525 19.93504 560.126465 C 20.357237 559.139404 24.110723 557.201477 28.276127 555.819946 C 32.441509 554.438477 39.426971 552.605957 43.799362 551.74762 C 48.171768 550.889343 54.70047 550.289978 58.307594 550.415771 C 61.914715 550.541504 65.540718 551.372192 66.365372 552.261597 C 67.190025 553.151001 67.814438 555.20929 67.752968 556.835449 C 67.690628 558.484558 66.317894 560.566528 64.649101 561.543091 C 63.003448 562.505981 56.113708 564.014587 49.338551 564.895508 C 42.563377 565.776428 33.306435 566.356812 28.767563 566.185242 Z M 858.74823 564.847046 C 823.754822 563.455688 792.772583 561.83905 789.898804 561.254517 C 787.025024 560.670044 782.70166 558.937866 780.291199 557.405151 C 776.888184 555.241211 775.940613 553.775757 776.051331 550.847351 C 776.15802 548.02478 777.306946 546.385742 780.619202 544.331116 C 783.053162 542.82135 787.795105 541.221741 791.15686 540.776428 C 794.518555 540.331116 805.738464 540.385864 816.089844 540.898193 C 826.441223 541.4104 852.687073 543.721924 874.414001 546.034851 C 896.140991 548.347778 925.852417 551.862 940.439636 553.844177 C 955.026855 555.826416 968.313477 558.096008 969.965576 558.887756 C 972.377625 560.04364 972.654175 560.679199 971.369202 562.113525 C 970.489197 563.095947 966.717041 564.41394 962.986816 565.042419 C 959.256653 565.670898 948.592407 566.453247 939.288574 566.780945 C 929.984802 567.108704 893.741638 566.238464 858.74823 564.847046 Z M 183.83432 450.698547 C 176.201492 450.542053 167.638748 449.80365 164.806046 449.057617 C 161.973358 448.311707 151.081955 446.766846 140.602936 445.624756 C 130.123932 444.482544 109.758965 441.401611 95.347466 438.777954 C 80.935982 436.154419 64.202057 433.178162 58.16098 432.164063 C 52.119904 431.149902 45.008877 429.629639 42.358688 428.785583 C 38.912338 427.687927 37.5672 426.535828 37.635094 424.739624 C 37.696777 423.107788 38.993862 421.925842 41.338787 421.364624 C 43.323605 420.889587 55.757999 420.909607 68.970772 421.408997 C 82.183548 421.908447 106.536049 423.899719 123.087456 425.834229 C 139.638855 427.768555 162.103622 430.403748 173.009125 431.690125 C 189.391281 433.622498 193.931458 434.623596 199.132706 437.450195 C 203.359909 439.747559 205.397614 441.67865 205.335251 443.328491 C 205.284164 444.67981 203.548096 446.954895 201.47731 448.384277 C 198.259644 450.605286 195.694595 450.941772 183.83432 450.698547 Z M 922.69751 421.170105 C 918.401794 421.286072 913.873291 421.038879 912.634216 420.620728 C 911.395203 420.202515 909.821655 418.71228 909.137512 417.309021 C 908.28772 415.566101 908.344666 413.986633 909.317017 412.323914 C 910.099792 410.985352 913.265076 409.069458 916.35083 408.066528 C 919.436584 407.063538 927.253967 405.554382 933.722839 404.712891 C 940.19165 403.871399 947.821411 403.27832 950.677917 403.394897 C 953.534424 403.511536 956.667603 404.154297 957.640564 404.82312 C 958.613586 405.492004 959.026794 406.934204 958.55896 408.028015 C 958.091064 409.121887 955.33075 411.464111 952.424866 413.233032 C 949.518982 415.002014 943.398865 417.46405 938.824646 418.704224 C 934.250427 419.944458 926.993225 421.054016 922.69751 421.170105 Z M 289.835693 387.22644 C 288.648193 387.406433 281.748779 384.157227 274.503723 380.006042 C 267.258606 375.854797 255.045609 368.441711 247.363724 363.532532 C 239.681824 358.623413 227.687134 350.840942 220.708862 346.238281 C 213.730606 341.63562 202.688263 334.187256 196.170303 329.686401 C 189.65239 325.185547 179.955811 318.530945 174.622345 314.89856 C 169.28891 311.266052 156.370667 302.388489 145.915131 295.170532 C 135.45961 287.952576 124.443275 279.862427 121.434418 277.192505 C 118.425537 274.522583 114.025818 270.939575 111.657219 269.230347 C 109.167686 267.433899 107.391808 265.034973 107.448143 263.544495 C 107.508415 261.950073 108.412514 261.003906 109.817596 261.064636 C 111.067184 261.118652 119.82869 265.419128 129.287582 270.621155 C 138.746475 275.823181 155.909714 286.201111 167.428085 293.683105 C 178.946472 301.165161 191.794449 309.595825 195.979095 312.417908 C 200.163757 315.23999 212.147873 323.302429 222.610428 330.33429 C 233.072998 337.366211 251.312775 349.987549 263.143311 358.381897 C 274.973785 366.776123 286.526764 375.410645 288.816559 377.569641 C 291.521393 380.120056 292.807251 382.44165 292.487274 384.197144 C 292.2164 385.683289 291.023163 387.046448 289.835693 387.22644 Z M 360.868195 345.907959 C 358.890015 345.801636 355.267517 344.545105 352.818298 343.115662 C 350.369049 341.68634 342.445892 333.95166 335.211334 325.927368 C 327.976746 317.903259 314.254913 301.680115 304.718384 289.876099 C 295.181854 278.072021 280.933167 260.860779 273.054688 251.628784 C 265.176178 242.396851 253.400162 228.777832 246.885757 221.364197 C 240.371353 213.950562 229.281754 201.107727 222.242157 192.824463 C 215.20256 184.54126 200.712082 167.615723 190.041031 155.212158 C 179.36998 142.808594 168.087646 129.052734 164.969162 124.643494 C 161.850708 120.234314 159.117615 115.01062 158.895676 113.035339 C 158.572021 110.155151 158.995972 109.463013 161.036484 109.540161 C 162.436493 109.593079 169.730957 115.649109 177.25528 123.005493 C 184.776245 130.358521 200.217682 146.595886 211.56955 159.08844 C 222.921448 171.581055 240.883774 191.78064 251.485855 203.97644 C 262.087921 216.172302 277.472107 233.724121 285.672852 242.98053 C 293.873596 252.237 307.076904 267.078064 315.013489 275.960754 C 322.950073 284.843384 336.440491 300.193665 344.992157 310.072266 C 353.543823 319.950928 362.133423 330.684875 364.080139 333.925598 C 367.109009 338.96759 367.39209 340.271057 366.042297 342.959595 C 364.904694 345.225342 363.461945 346.047424 360.868195 345.907959 Z M 425.014191 302.625671 C 423.19281 302.815308 420.686707 301.29187 417.931366 298.320068 C 415.586151 295.790588 412.571533 291.107727 411.2323 287.913757 C 409.893005 284.719788 399.556427 250.742554 388.262115 212.408691 C 376.967773 174.07489 365.984772 135.915405 363.855469 127.609863 C 361.726105 119.30426 357.675537 103.351257 354.854156 92.158569 C 352.032745 80.965942 348.52652 66.789001 347.062531 60.654297 C 345.598511 54.519592 343.09726 43.891663 341.504181 37.036865 C 339.911041 30.182007 338.400665 21.786011 338.147705 18.37915 C 337.796326 13.646729 338.109741 12.20459 339.475586 12.268555 C 340.458893 12.314514 342.376709 14.288879 343.737396 16.655945 C 345.098053 19.02301 349.246918 28.389221 352.957031 37.469788 C 356.667114 46.550293 361.807709 61.374207 364.380493 70.411743 C 366.953339 79.44928 371.453888 95.12677 374.381866 105.25061 C 377.309753 115.374451 382.785248 133.722107 386.549561 146.023193 C 390.313904 158.324219 397.82486 183.185913 403.24054 201.27124 C 408.65625 219.356506 416.986511 247.467651 421.752197 263.740295 C 429.180939 289.105957 430.232788 293.96936 429.125 297.82959 C 428.209076 301.021484 427.01236 302.417603 425.014191 302.625671 Z M 842.877136 308.267517 C 840.220947 308.167114 837.672607 307.423523 837.214172 306.615051 C 836.755798 305.806519 838.120544 303.618225 840.247131 301.752014 C 842.373657 299.885925 847.123291 296.141479 850.80188 293.43103 C 854.480469 290.720581 861.677368 286.099426 866.794983 283.161682 C 871.912537 280.223999 879.925415 275.998108 884.601318 273.770996 C 890.024231 271.187927 894.498413 269.915894 896.956726 270.258301 C 899.076477 270.553406 901.40448 271.828186 902.130188 273.090942 C 903.216492 274.981262 902.391418 276.386719 897.460327 281.045227 C 894.166321 284.157288 885.955505 289.718506 879.214172 293.403381 C 872.472961 297.088379 862.625977 301.981384 857.332031 304.276672 C 851.662903 306.734741 845.72168 308.375061 842.877136 308.267517 Z M 510.236938 270.30481 C 509.03244 270.711548 507.179901 269.809692 505.772827 268.131653 C 503.76004 265.731201 503.388824 262.898376 503.497864 250.769348 C 503.569519 242.797791 505.341705 214.688538 507.436096 188.304443 C 509.530457 161.920349 512.303101 128.377075 513.597534 113.763916 C 514.892029 99.150696 516.760071 81.665771 517.748779 74.908569 C 518.737488 68.151367 519.955566 60.443665 520.455566 57.780457 C 520.998596 54.888367 522.082214 52.965454 523.146301 53.005676 C 524.12616 53.042725 525.451233 55.287231 526.090881 57.993469 C 526.73053 60.699768 527.625427 68.610474 528.079468 75.572876 C 528.533447 82.535278 528.298096 104.285217 527.556458 123.905945 C 526.814819 143.526733 524.858154 172.588745 523.208313 188.488098 C 521.558533 204.387573 519.640686 227.322876 518.94635 239.455444 C 518.082764 254.547241 517.101196 262.519409 515.838867 264.695923 C 514.823975 266.445618 513.611633 268.266968 513.144775 268.743347 C 512.677856 269.219788 511.369385 269.922424 510.236938 270.30481 Z M 779.531738 213.045776 C 778.034912 213.377441 776.226685 212.732788 775.311646 211.541321 C 774.43103 210.394775 774.105896 208.147339 774.588989 206.547119 C 775.072144 204.946838 776.635193 201.926086 778.062317 199.834351 C 779.489624 197.742615 784.873047 192.386902 790.025574 187.932678 C 795.178162 183.478455 802.84082 177.123352 807.053772 173.81012 C 811.266785 170.496948 816.440552 167.207825 818.551208 166.501038 C 820.661804 165.794189 822.760986 165.617432 823.216003 166.108154 C 823.670959 166.598999 822.751221 169.012695 821.171936 171.472107 C 819.592712 173.931458 814.348389 180.341553 809.517822 185.716736 C 804.687256 191.091919 796.553528 199.309326 791.442871 203.977661 C 786.332214 208.646118 780.972229 212.726746 779.531738 213.045776 Z M 640.531311 195.28595 C 639.187866 195.235168 637.567505 194.12439 636.930481 192.817566 C 636.072693 191.058167 637.148804 187.301758 641.076355 178.344666 C 643.993713 171.691467 650.697144 158.218506 655.972839 148.404785 C 661.248474 138.591003 669.017212 125.294312 673.236633 118.856384 C 677.456055 112.418518 683.995544 103.35614 687.76886 98.71759 C 691.542114 94.079102 695.932007 89.50592 697.524231 88.554932 C 700.125122 87.001343 700.551392 87.097168 701.722046 89.498413 C 702.732239 91.570435 702.24884 94.27594 699.570435 101.540466 C 697.670349 106.693604 693.753418 115.502014 690.86615 121.114746 C 687.978821 126.727417 682.793823 136.737244 679.343872 143.358765 C 675.893982 149.980469 669.546753 161.058594 665.238953 167.977051 C 660.931091 174.895447 654.159119 183.891052 650.190125 187.967102 C 646.221069 192.043274 641.874634 195.336731 640.531311 195.28595 Z"/>
    <path id="path2-copie" fill="#ffc916" fill-rule="evenodd" stroke="#ffc916" stroke-width="33" d="M 437.226013 979.999756 C 436.653564 979.978149 435.814331 979.562317 435.361145 979.075623 C 434.907898 978.588867 434.793671 971.432617 435.107239 963.172852 C 435.420807 954.912964 436.795715 941.371582 438.162567 933.080811 C 439.529449 924.790039 441.836792 909.693848 443.290009 899.533691 C 444.743286 889.373535 449.093414 857.835938 452.957001 829.450134 C 456.820587 801.064392 460.773285 772.204834 461.740753 765.317932 C 462.93338 756.828186 464.531891 750.907959 466.705139 746.932251 C 469.20108 742.366089 470.693237 741.008362 473.44751 740.797241 C 476.197815 740.586426 477.28952 741.265259 478.355591 743.849487 C 479.335541 746.224976 479.220367 754.373962 477.951813 772.417542 C 476.975647 786.302002 474.296112 809.695435 471.997314 824.402893 C 469.698486 839.110291 465.877686 862.310181 463.506653 875.958191 C 461.13559 889.606201 457.029968 912.218994 454.383118 926.208862 C 451.736206 940.19873 447.925323 956.770508 445.914398 963.035095 C 443.903473 969.299683 441.360138 975.688293 440.262543 977.232056 C 439.164948 978.775757 437.798492 980.02124 437.226013 979.999756 Z M 633.398621 967.80896 C 632.525208 968.078003 630.703003 966.340942 629.349304 963.948792 C 627.995667 961.556641 625.036804 955.494934 622.773987 950.478516 C 620.51123 945.462036 617.376343 937.851013 615.807617 933.565063 C 614.238892 929.279236 611.695923 921.978638 610.156616 917.341675 C 608.617371 912.704651 605.474915 901.923218 603.173584 893.382935 C 600.872253 884.84259 597.032959 870.864807 594.641968 862.321106 C 592.250977 853.777466 587.642395 837.177002 584.400757 825.431152 C 581.159058 813.685303 575.466614 793.452942 571.750793 780.470276 C 568.035034 767.48761 561.130432 743.595825 556.407288 727.377502 C 551.684082 711.15918 547.623474 695.170776 547.383545 691.847778 C 546.987549 686.362061 547.333191 685.450012 551.139526 681.936157 C 553.932983 679.357361 556.062256 678.359619 557.521484 678.945801 C 558.725952 679.429504 560.89563 681.255371 562.343079 683.003174 C 563.790527 684.750854 565.820435 688.704224 566.853943 691.788391 C 567.887451 694.872437 570.71698 705.116211 573.141846 714.552368 C 575.566772 723.988403 579.906311 740.866943 582.785522 752.060303 C 585.664673 763.25354 590.029175 780.268494 592.484314 789.871277 C 594.939514 799.47406 599.08783 815.769043 601.702698 826.082336 C 604.317505 836.39563 608.283325 851.819153 610.515625 860.356812 C 612.747986 868.894592 616.913086 884.599121 619.771545 895.25592 C 622.630005 905.912659 627.244507 922.745728 630.026062 932.662598 C 633.525574 945.139404 635.068481 953.254089 635.035095 959.006592 C 635.002502 964.60199 634.46759 967.479797 633.398621 967.80896 Z M 288.446686 925.727478 C 287.525543 925.69281 287.314819 924.383118 287.876373 922.183655 C 288.366333 920.264771 290.591095 914.440552 292.820374 909.240906 C 295.049652 904.04126 299.984314 893.563843 303.786346 885.957642 C 307.588379 878.351563 315.473083 863.30542 321.307953 852.521851 C 327.142853 841.738159 335.414642 827.351624 339.689667 820.551636 C 343.964691 813.751648 351.334229 802.858154 356.066376 796.34375 C 360.798523 789.829285 366.428802 782.637634 368.578094 780.362244 C 370.727386 778.086853 373.557526 776.176025 374.867371 776.115967 C 376.552887 776.038696 377.142334 776.776245 376.884369 778.639648 C 376.683929 780.087708 369.918823 792.801819 361.85083 806.893188 C 353.782898 820.984497 341.303314 842.379395 334.11853 854.437256 C 326.933655 866.495178 316.088196 884.531372 310.017487 894.517761 C 303.946777 904.50415 296.938568 915.624084 294.443787 919.228699 C 291.948975 922.833252 289.250275 925.75769 288.446686 925.727478 Z M 812.616699 878.850464 C 810.451355 878.768982 785.663391 852.911011 717.399292 779.522461 C 666.639832 724.952698 621.15802 674.975098 616.328613 668.46106 C 611.03595 661.322388 607.29187 654.904358 606.903564 652.304749 C 606.450684 649.273132 606.871338 647.42688 608.319702 646.089905 C 609.556091 644.948486 611.676575 644.485474 613.621643 644.932129 C 615.40448 645.341553 620.850952 649.183472 625.724854 653.469788 C 630.598694 657.756042 645.064514 672.938599 657.870911 687.208862 C 670.677307 701.479004 700.176453 735.223938 723.424622 762.197571 C 746.672729 789.171143 774.84198 821.869446 786.02301 834.860474 C 797.203979 847.851563 808.131104 861.299805 810.30542 864.745422 C 812.479736 868.191162 814.548096 872.799194 814.90155 874.985474 C 815.469177 878.496338 815.202271 878.947815 812.616699 878.850464 Z M 166.451462 832.491577 C 164.442612 832.796082 163.347992 832.469604 163.675079 831.663452 C 163.972092 830.931519 166.143112 827.905579 168.499557 824.93927 C 170.856018 821.9729 177.033875 815.681274 182.228104 810.957764 C 187.422333 806.234253 194.494629 800.310486 197.944275 797.79364 C 201.393967 795.276794 205.517319 793.260437 207.107254 793.312744 C 209.33136 793.386047 209.970306 794.13916 209.877701 796.578552 C 209.796249 798.723816 207.423874 801.869019 202.541397 806.304626 C 198.572601 809.910156 189.574966 817.164063 182.546631 822.424438 C 175.518295 827.684814 168.275452 832.215027 166.451462 832.491577 Z M 84.1036 725.42627 C 82.222305 725.727783 80.269753 725.53064 79.764618 724.98822 C 79.259483 724.44574 78.884743 722.986328 78.931862 721.745117 C 78.983658 720.380737 83.058899 716.887695 89.23687 712.912109 C 94.857506 709.295166 104.181328 703.859192 109.956444 700.832153 C 115.73156 697.805054 123.239967 694.427734 126.641769 693.327026 C 132.327103 691.487305 132.98764 691.498291 134.816589 693.462402 C 136.212616 694.96167 136.426041 696.219604 135.531815 697.678345 C 134.830856 698.821899 132.74968 700.677734 130.907013 701.802368 C 129.064362 702.92688 124.364555 705.813843 120.463036 708.217896 C 116.561516 710.621704 107.554199 715.353699 100.446762 718.733276 C 93.33934 722.112854 85.984917 725.124634 84.1036 725.42627 Z M 904.676147 746.478088 C 903.880859 746.411987 898.117065 743.807434 891.867615 740.690308 C 885.618225 737.57312 876.250793 732.722168 871.051086 729.910522 C 865.851379 727.098755 854.519287 720.629639 845.868591 715.534668 C 837.217957 710.439697 823.791809 702.355774 816.032654 697.570313 C 808.27356 692.784912 794.995911 684.193481 786.526794 678.47821 C 778.057739 672.762939 765.211304 663.843628 757.979065 658.657349 C 750.746887 653.471191 738.359131 644.314941 730.450439 638.310364 C 722.54187 632.305786 713.096191 624.310181 709.460083 620.542603 C 703.467529 614.333313 703.002075 613.431763 704.485046 610.906982 C 705.908508 608.483398 706.909058 608.226929 712.187134 608.933105 C 716.165833 609.465454 722.330933 612.08844 730.102783 616.55542 C 736.620056 620.301331 749.558044 628.876953 758.853943 635.612305 C 768.149841 642.347778 785.065918 654.213135 796.445313 661.979736 C 807.824646 669.74646 829.271118 684.263794 844.104187 694.240479 C 858.937317 704.217163 875.581177 715.627197 881.090759 719.596191 C 886.600281 723.565063 893.63269 728.931274 896.718201 731.521179 C 899.803711 734.111084 903.935059 737.725708 905.898987 739.553711 C 908.857056 742.307129 909.182556 743.196777 907.795959 744.737915 C 906.875244 745.76123 905.471313 746.544312 904.676147 746.478088 Z M 33.794991 565.187378 C 27.723383 564.958862 25.460463 564.381348 24.964725 562.933716 C 24.598101 561.86322 24.639858 560.191895 25.057533 559.219666 C 25.475187 558.247437 29.188274 556.338623 33.308846 554.977905 C 37.429394 553.617188 44.339668 551.812195 48.664997 550.966797 C 52.990341 550.121338 59.448772 549.531006 63.017075 549.654907 C 66.585373 549.778809 70.172348 550.596924 70.988121 551.473022 C 71.803902 552.348999 72.421593 554.376404 72.360786 555.978149 C 72.299118 557.602417 70.941154 559.653076 69.290321 560.61499 C 67.662384 561.563416 60.846802 563.049316 54.144566 563.916992 C 47.442318 564.784668 38.285007 565.356323 33.794991 565.187378 Z M 854.842346 563.869263 C 820.225586 562.49884 789.576782 560.906494 786.733948 560.33075 C 783.891113 559.755066 779.614258 558.04895 777.229736 556.539246 C 773.863342 554.407837 772.925964 552.964417 773.035522 550.080017 C 773.141052 547.299866 774.277649 545.685425 777.554199 543.661743 C 779.961975 542.174683 784.652893 540.599121 787.978455 540.160461 C 791.303955 539.721863 802.403137 539.775757 812.643066 540.280396 C 822.883057 540.784912 848.846436 543.061646 870.339478 545.339844 C 891.832642 547.618042 921.224243 551.079407 935.65448 553.031799 C 950.084656 554.984253 963.228271 557.219727 964.86261 557.999573 C 967.248718 559.138062 967.522278 559.764038 966.251099 561.17688 C 965.380615 562.144531 961.649048 563.442688 957.958984 564.061707 C 954.268921 564.680786 943.719482 565.451294 934.515808 565.774109 C 925.312134 566.096924 889.459106 565.239746 854.842346 563.869263 Z M 187.192719 451.436523 C 179.642044 451.28241 171.171463 450.555115 168.369247 449.820313 C 165.567047 449.085571 154.792877 447.563965 144.426651 446.439026 C 134.060425 445.313965 113.914658 442.279358 99.658272 439.695129 C 85.401901 437.111023 68.848091 434.179504 62.872036 433.180664 C 56.895985 432.181763 49.861496 430.684326 47.23983 429.852966 C 43.830574 428.77179 42.499912 427.637024 42.567078 425.867798 C 42.628098 424.260498 43.911221 423.096313 46.230907 422.543579 C 48.194363 422.075684 60.494923 422.095398 73.565483 422.58728 C 86.63604 423.079224 110.726433 425.040527 127.099693 426.945984 C 143.472946 428.851196 165.695908 431.446777 176.484039 432.713867 C 192.689865 434.617188 197.181183 435.60321 202.326447 438.387329 C 206.508148 440.650146 208.523926 442.552246 208.462234 444.177307 C 208.411697 445.508301 206.694305 447.749146 204.645813 449.157043 C 201.462784 451.344666 198.925339 451.676147 187.192719 451.436523 Z M 918.103333 422.351929 C 913.853821 422.466187 909.374084 422.222717 908.148315 421.810852 C 906.922668 421.398926 905.366028 419.931091 904.68927 418.548889 C 903.848633 416.832214 903.904968 415.276428 904.866821 413.638733 C 905.641174 412.320313 908.7724 410.433167 911.824951 409.445313 C 914.877502 408.457397 922.610718 406.970947 929.009949 406.14209 C 935.409119 405.313293 942.956787 404.729126 945.782532 404.843933 C 948.608337 404.958801 951.707764 405.591919 952.670227 406.250671 C 953.632813 406.909485 954.041565 408.330017 953.578735 409.40741 C 953.115906 410.484863 950.385315 412.79187 947.510681 414.53418 C 944.636108 416.27655 938.581848 418.701599 934.056885 419.923157 C 929.53186 421.144714 922.352783 422.23761 918.103333 422.351929 Z M 292.053162 388.918518 C 290.878448 389.095764 284.053284 385.895447 276.88623 381.806641 C 269.719086 377.717773 257.637543 370.416138 250.03833 365.58075 C 242.439117 360.745422 230.573532 353.079895 223.670364 348.546448 C 216.767227 344.012939 205.843735 336.676575 199.39592 332.243347 C 192.948166 327.81012 183.355957 321.255554 178.079895 317.677795 C 172.803864 314.099854 160.024658 305.355774 149.681671 298.246277 C 139.338684 291.136841 128.440918 283.168274 125.464447 280.538513 C 122.487946 277.908691 118.135582 274.379517 115.79248 272.695984 C 113.329742 270.926575 111.572975 268.563721 111.628708 267.095642 C 111.688332 265.525146 112.582695 264.593201 113.972656 264.653015 C 115.208794 264.706238 123.875999 268.942078 133.233078 274.065918 C 142.590164 279.189758 159.56868 289.411682 170.963074 296.781189 C 182.357483 304.150818 195.067169 312.454773 199.206772 315.234436 C 203.34639 318.014099 215.201523 325.955322 225.551468 332.88147 C 235.901428 339.807739 253.944885 352.239319 265.648071 360.507507 C 277.351227 368.775574 288.779846 377.280334 291.045013 379.40686 C 293.720734 381.918945 294.992737 384.205627 294.676208 385.934753 C 294.408264 387.39856 293.227844 388.741211 292.053162 388.918518 Z M 362.321136 348.221069 C 360.364227 348.116333 356.780731 346.878723 354.35788 345.470764 C 351.934998 344.062927 344.097107 336.444519 336.94043 328.540833 C 329.783691 320.637329 316.209564 304.65802 306.775665 293.031433 C 297.341797 281.404785 283.24646 264.452271 275.452789 255.359009 C 267.659058 246.265869 256.009796 232.851563 249.565521 225.549316 C 243.121231 218.247131 232.150986 205.597351 225.187164 197.438599 C 218.223328 189.279907 203.888824 172.608765 193.332626 160.391663 C 182.776428 148.1745 171.615524 134.625427 168.530609 130.282471 C 165.445724 125.939514 162.74205 120.794373 162.522491 118.848755 C 162.202332 116.011902 162.621719 115.330139 164.640259 115.406128 C 166.025208 115.458252 173.24115 121.423279 180.684494 128.669067 C 188.124512 135.91156 203.399734 151.904846 214.629425 164.209656 C 225.859146 176.514465 243.628128 196.410461 254.116104 208.422913 C 264.604065 220.435486 279.822662 237.72345 287.93512 246.840759 C 296.047607 255.958069 309.108795 270.57605 316.959961 279.325256 C 324.811127 288.074341 338.156342 303.193909 346.615967 312.924011 C 355.075592 322.654236 363.572723 333.226807 365.498505 336.418823 C 368.494781 341.38501 368.774811 342.668884 367.439545 345.317017 C 366.314178 347.548706 364.886963 348.358459 362.321136 348.221069 Z M 425.776703 305.589355 C 423.974915 305.776184 421.495789 304.275635 418.770111 301.348511 C 416.450134 298.856995 413.467957 294.244568 412.143158 291.098572 C 410.818268 287.952637 400.592957 254.486084 389.420197 216.728455 C 378.247406 178.970825 367.382629 141.384949 365.276245 133.204224 C 363.1698 125.023499 359.162842 109.310242 356.371826 98.285828 C 353.58078 87.261414 350.112274 73.297546 348.664063 67.255066 C 347.21579 61.212585 344.741455 50.744385 343.165527 43.992615 C 341.589539 37.240845 340.095428 28.971008 339.845184 25.615356 C 339.497589 20.954102 339.807617 19.53363 341.158783 19.596619 C 342.1315 19.641907 344.028656 21.586609 345.374695 23.918091 C 346.720734 26.249573 350.824921 35.474976 354.495117 44.419067 C 358.165253 53.363098 363.250519 67.964172 365.795624 76.865845 C 368.340759 85.767578 372.792877 101.209412 375.689331 111.181091 C 378.585724 121.15271 384.002289 139.224609 387.726074 151.340759 C 391.44989 163.456909 398.880005 187.944885 404.237396 205.758423 C 409.594818 223.571838 417.835419 251.260437 422.549805 267.288452 C 429.89859 292.272888 430.939117 297.063171 429.843262 300.865356 C 428.937195 304.009277 427.753357 305.384399 425.776703 305.589355 Z M 839.14209 311.146423 C 836.514465 311.047546 833.99353 310.315125 833.540039 309.518799 C 833.086609 308.722412 834.436646 306.567017 836.540344 304.728821 C 838.643982 302.890808 843.342529 299.202637 846.981506 296.532959 C 850.620483 293.86322 857.739929 289.311523 862.80249 286.417969 C 867.864929 283.524414 875.791565 279.362061 880.417175 277.168396 C 885.781677 274.624146 890.207703 273.371277 892.639587 273.708496 C 894.736511 273.999207 897.039429 275.254822 897.757324 276.498596 C 898.83197 278.360474 898.015747 279.744812 893.137756 284.333313 C 889.879211 287.39856 881.756775 292.876221 875.088013 296.505676 C 868.419312 300.135315 858.678345 304.954773 853.441345 307.215576 C 847.833252 309.636658 841.955994 311.252319 839.14209 311.146423 Z M 510.082153 273.754333 C 508.890625 274.154968 507.058044 273.266663 505.666107 271.613831 C 503.674988 269.249451 503.30777 266.459229 503.415619 254.512512 C 503.486511 246.660767 505.239624 218.973999 507.311462 192.986511 C 509.383301 166.999023 512.126099 133.9599 513.406616 119.566406 C 514.687134 105.172852 516.535095 87.950745 517.513184 81.295105 C 518.491211 74.639465 519.696167 67.047607 520.190796 64.424438 C 520.727966 61.575806 521.799927 59.681824 522.8526 59.721436 C 523.821899 59.757935 525.13269 61.968689 525.765442 64.634216 C 526.398254 67.299866 527.283508 75.091675 527.732666 81.949402 C 528.181763 88.80719 527.948914 110.230164 527.215271 129.555969 C 526.481628 148.881836 524.546021 177.507019 522.91394 193.167419 C 521.281921 208.827881 519.384705 231.418457 518.697815 243.368652 C 517.843567 258.233582 516.872559 266.085938 515.623779 268.229736 C 514.619812 269.953125 513.420532 271.747131 512.958679 272.216309 C 512.496826 272.685608 511.202423 273.377686 510.082153 273.754333 Z M 776.478455 217.355957 C 774.997742 217.682617 773.208984 217.047668 772.303772 215.874084 C 771.432678 214.744812 771.111023 212.531128 771.588928 210.954956 C 772.066895 209.378723 773.613098 206.403381 775.024841 204.343079 C 776.436829 202.282837 781.762268 197.007629 786.859375 192.6203 C 791.956482 188.233032 799.536682 181.97345 803.704285 178.710022 C 807.871948 175.446655 812.98999 172.20697 815.077942 171.510803 C 817.165833 170.814636 819.242432 170.640503 819.692566 171.12384 C 820.142578 171.6073 819.232788 173.984741 817.670471 176.407166 C 816.108276 178.82959 810.920349 185.143311 806.141785 190.437683 C 801.36322 195.732056 793.317017 203.825989 788.261414 208.424133 C 783.20575 213.0224 777.903442 217.041687 776.478455 217.355957 Z M 638.974121 199.863098 C 637.645142 199.813049 636.042236 198.718994 635.412048 197.431824 C 634.563538 195.698853 635.628052 191.998901 639.513306 183.176453 C 642.399292 176.62323 649.030579 163.352783 654.249451 153.686584 C 659.468323 144.020325 667.153442 130.923462 671.327454 124.582336 C 675.501465 118.241211 681.970581 109.315063 685.703247 104.746216 C 689.435913 100.17749 693.778564 95.673035 695.353638 94.736328 C 697.926514 93.206116 698.348206 93.300476 699.506287 95.665649 C 700.505554 97.706543 700.027405 100.371338 697.377808 107.526672 C 695.498169 112.602356 691.623413 121.278381 688.767212 126.806763 C 685.91095 132.335022 680.781799 142.194397 677.368958 148.716431 C 673.956177 155.238586 667.677307 166.150208 663.415833 172.964661 C 659.154358 179.779053 652.455261 188.639465 648.528992 192.654236 C 644.602661 196.669128 640.302979 199.913086 638.974121 199.863098 Z"/>
    <path id="Polygone" fill="none" stroke="#ffe793" stroke-width="12" stroke-linecap="round" stroke-linejoin="round" visibility="hidden" d="M 500 294 L 354.335999 354.335999 L 294 500 L 354.335999 645.664001 L 500 706 L 645.664001 645.664001 L 706 500 L 645.664001 354.335999 Z"/>
</svg>
